<svg width="238" height="48" viewBox="0 0 238 48" fill="none" xmlns="http://www.w3.org/2000/svg">
<g clip-path="url(#clip0_65_2236)">
<path d="M9.20189 28.1668L2.15458 23.9541C1.49604 23.5634 0.951415 23.0093 0.574317 22.3464C0.197219 21.6835 0.000648661 20.9345 0.00395352 20.1734C0.000584192 19.4113 0.197526 18.6615 0.575356 17.998C0.953184 17.3344 1.49886 16.7801 2.15854 16.3895L7.78053 13.0291C8.90331 12.3559 10.1902 12 11.5022 12C12.8141 12 14.1011 12.3559 15.2238 13.0291L20.8458 16.3895C21.5043 16.7803 22.0489 17.3344 22.426 17.9973C22.803 18.6602 22.9997 19.4091 22.9964 20.1702C22.9999 20.9324 22.803 21.6821 22.4252 22.3457C22.0473 23.0092 21.5016 23.5637 20.8418 23.9541L13.7946 28.166C13.1018 28.5814 12.3077 28.8011 11.4983 28.8015C10.6888 28.8012 9.89484 28.5818 9.20189 28.1668ZM16.2231 24.2156L18.3151 22.9651L19.6249 22.1796L12.6836 18.0313C12.3265 17.8171 11.9171 17.7038 11.4998 17.7037C11.0828 17.7039 10.6737 17.8172 10.3168 18.0313L3.37638 22.1796L4.68528 22.9651L6.77731 24.2156L10.3168 26.3311C10.6739 26.545 11.0831 26.6581 11.5002 26.6581C11.9174 26.6581 12.3265 26.545 12.6836 26.3311L16.2231 24.2156ZM8.89227 14.8609L3.27027 18.2214H3.26948C2.93007 18.4226 2.64935 18.7081 2.45497 19.0497C2.26058 19.3913 2.15923 19.7772 2.16091 20.1694C2.16192 20.2461 2.16695 20.3227 2.17596 20.3988L9.20348 16.1986C9.89635 15.7836 10.6904 15.5642 11.4998 15.5642C12.3092 15.5642 13.1033 15.7836 13.7961 16.1986L20.8237 20.3988C20.8244 20.3911 20.8251 20.3833 20.8259 20.3756C20.8323 20.3074 20.8387 20.24 20.8387 20.1694C20.8406 19.7771 20.7394 19.3911 20.545 19.0495C20.3505 18.7079 20.0697 18.4224 19.7301 18.2214L14.1081 14.8609C13.3211 14.3895 12.4192 14.1401 11.4998 14.1398C10.5807 14.1402 9.67913 14.3896 8.89227 14.8609ZM1.00484 27.4369L2.15459 28.1242L7.74651 31.4666C8.87919 32.1447 10.1769 32.5035 11.4998 32.5042C12.8223 32.503 14.1194 32.144 15.2515 31.4658L20.9314 28.0715L20.9425 28.0637L21.9679 27.451C22.2819 27.2634 22.5416 26.9984 22.722 26.6819C22.9023 26.3653 22.9971 26.0079 22.9973 25.6443V24.3356L19.7309 26.2868L14.143 29.6308C13.3466 30.1082 12.4338 30.3605 11.5034 30.3605C10.5729 30.3605 9.66015 30.1082 8.86377 29.6308L3.26949 26.2868L6.60917e-06 24.3325V25.6679C-0.000898595 26.0237 0.0911948 26.3737 0.267304 26.6838C0.443413 26.9938 0.697522 27.2533 1.00484 27.4369ZM19.7309 30.2101L15.4439 32.7717C14.2542 33.4851 12.8904 33.8623 11.5002 33.8623C10.11 33.8623 8.74627 33.4851 7.55648 32.7717L3.26949 30.2101L0.00395821 28.2581H0V29.5865C6.02002e-05 29.9426 0.0928952 30.2927 0.269506 30.6028C0.446117 30.9128 0.700508 31.1724 1.008 31.3562L2.15458 32.042L3.88078 33.0733L4.33371 33.3444L6.44157 34.6012C7.96766 35.516 9.71671 35.9997 11.4998 36.0002C13.2831 35.9995 15.0323 35.5157 16.5589 34.6012L20.2385 32.4017L21.9576 31.3853C22.2753 31.1973 22.5383 30.9308 22.7212 30.6118C22.9039 30.2928 23.0002 29.9322 23.0005 29.5652V28.2495L19.7309 30.2101Z" fill="white"/>
</g>
<g clip-path="url(#clip1_65_2236)">
<path d="M55.4109 17L48.4484 31.0004H52.0388L53.4517 28.0508H61.6937L63.1066 31.0004H66.6969L59.7352 17H55.4109ZM54.6856 25.475L57.5727 19.4473L60.4597 25.475H54.6856ZM38.3721 17H35V31.0004H47.2272V28.2001H38.3721V17ZM71.1302 22.8467L76.0495 17H79.7984L72.8359 25.2844V31.0004H69.4638V25.3273L62.462 17H66.211L71.1302 22.8467ZM84.2982 25.2135H93.4232V22.7869H84.343L84.3029 19.632H93.939V17H81.1199V23.9999V31.0004H94.0387V28.3684H84.3029L84.2982 25.2135ZM111.037 31.0004H107.087L102.612 25.6818H99.2426V31.0004H95.8672V17H105.119C106.204 17 107.156 17.1837 107.976 17.5511C108.755 17.8831 109.422 18.409 109.907 19.072C110.37 19.7191 110.601 20.4783 110.601 21.3495C110.601 22.2083 110.37 22.9612 109.907 23.6084C109.425 24.2708 108.759 24.797 107.983 25.13C107.48 25.3513 106.947 25.505 106.399 25.5865L111.037 31.0004ZM104.725 19.502H99.2394V23.2161H104.725C105.479 23.2166 106.077 23.0519 106.521 22.7219C106.964 22.3919 107.185 21.9345 107.185 21.3495C107.184 20.7649 106.963 20.3108 106.521 19.9873C106.078 19.6637 105.48 19.502 104.725 19.502Z" fill="white"/>
</g>
<defs>
<clipPath id="clip0_65_2236">
<rect width="23" height="24" fill="white" transform="translate(0 12)"/>
</clipPath>
<clipPath id="clip1_65_2236">
<rect width="76" height="14" fill="white" transform="translate(35 17)"/>
</clipPath>
</defs>
</svg>
